**ABCDEFGHIJKLMNOPQRSTUVWXYZabcdefghijklmnopqrstuvwxyz**************************
**PARASOLID !"#$%&'()*+,-./:;<=>?@[\]^_`{|}~0123456789**************************
**PART1;
MC=AMD64;
MC_MODEL=Intel64 Family 6 Model 142 Stepping 12, GenuineIntel;
MC_ID=unknown;
OS=Windows_NT;
OS_RELEASE=unknown;
FRU=Parasolid Version 31.1, build 278,  7-15-2019;
APPL=SOLIDWORKS 2020-2019269;
SITE=;
USER=unknown;
FORMAT=text;
GUISE=transmit;
KEY=servo motor SG60;
FILE=servo motor SG60.x_t;
DATE=Sat Mar 25 08:03:16 2023;
**PART2;
SCH=SCH_3101278_31100;
USFLD_SIZE=0;
**PART3;
**END_OF_HEADER*****************************************************************
T51 : TRANSMIT FILE created by modeller version 310127823 SCH_3101278_31100_1300
6222 0 10 20 CCCCCCCI4 mesh1006 0 I8 polyline1008 0 CCCCCCCCCCA16 mesh_offset_da
ta206 0 Z1 5 2 3 0 0 0 0 0 0 0 1e3 1e-8 0 0 0 1 0 1 4 0 81 255 2 2 5 5 1 0 0 0 0
 0 0 70 11 CI9 list_type0 0 1 uI10 notransmit0 0 1 lCCCDCCDI12 finger_index0 0 1
 dI12 finger_block1012 0 CZ3 0 4 T1 0 0 1 20 1 6 6 11 255 4 3 0 1 7 8 1 9 0 0 0
 12 34 CCCCCCI4 mesh1006 0 I8 polyline1008 0 CCCCCCCDI5 owner1040 0 CCCCCCI13 bo
undary_mesh1006 0 I17 boundary_polyline1008 0 CCCA16 index_map_offset0 0 1 dA9 i
ndex_map82 0 A17 node_id_index_map82 0 A20 schema_embedding_map82 0 A5 child12 0
 A14 lowest_node_id0 0 1 dA16 mesh_offset_data206 0 Z7 231 10 11 0 0 0 0 0 0 1e3
 1e-8 4 12 0 1 0 1 1 13 14 15 16 0 0 17 18 19 0 0 0 0 0 0 0 100 255 8 4 4 0 0 1
 0 0 0 1 0 0 0 1 0 0 0 1 0 ?11 9 1 0 1 12 20 1 0 4 0 0 12 12 1377 21 22 0 0 0 0
 0 0 1e3 1e-8 9 23 7 1 0 1 1 24 25 26 27 0 0 28 29 30 0 0 0 0 0 0 0 100 20 2 9 0
 0 1 0 0 0 1 0 0 0 1 0 0 0 1 0 ?81 1 21 1377 31 12 32 0 0 0 0 70 22 0 4 T12 0 0
 4 20 1 33 33 13 255 24 1119 0 12 0 34 0 0 35 0 51 255 25 137 0 36 37 0 0 --.005
5 .025 0 0 -1 0 .002 0 0 -1 31 255 26 1105 0 29 38 0 0 +-.0055 .0195 0 0 1 0 0 0
 1 .002 29 255 27 541 0 30 39 0 -169497096626163e-32 .025 .002397915761656365 19
 8 CCCCCCCA5 owner12 0 Z28 1126 0 12 35 0 40 V0 16 255 29 1139 0 ?41 0 42 26 0 0
 12 18 255 30 539 0 43 0 44 27 ?12 17 255 43 0 45 46 47 30 48 49 0 50 +18 44 347
 0 51 30 52 39 ?12 17 51 0 53 54 55 44 56 57 0 58 -18 52 202 0 59 44 60 61 ?12 2
9 39 349 0 44 61 27 -.0115 .0215 .006 29 61 204 0 52 62 39 .0115 .0215 -.006 29
 62 47 0 60 63 61 -.0115 .025 -.006 18 60 45 0 64 52 65 62 ?12 29 63 44 0 65 66
 62 .0115 .025 -.006 18 65 42 0 67 60 68 63 ?12 29 66 41 0 68 69 63 .0115 .025 .
006 18 68 39 0 70 65 71 66 ?12 29 69 38 0 71 72 66 -.0115 .025 .006 18 71 36 0 5
4 68 73 69 ?12 29 72 332 0 74 75 69 .016 .0195 .006 18 74 271 0 76 77 78 72 ?12
 29 75 335 0 78 79 72 .016 .0195 -.006 18 78 268 0 80 74 81 75 ?12 29 79 336 0 8
1 82 75 .016 .0195 -.000871779788708135 18 81 265 0 83 78 84 79 ?12 29 82 337 0
 84 85 79 .016 .0195 .000871779788708135 18 84 276 0 86 81 87 82 ?12 29 85 338 0
 73 88 82 .016 .0215 .006 18 73 275 0 89 71 90 85 ?12 29 88 339 0 90 91 85 .0115
 .0215 .006 18 90 269 0 92 73 93 88 ?12 29 91 341 0 93 94 88 .016 .0215 -.006 18
 93 274 0 95 90 96 91 ?12 29 94 342 0 96 97 91 .016 .0215 -.000871779788708135 1
8 96 273 0 98 93 77 94 ?12 29 97 343 0 77 99 94 .016 .0215 .000871779788708135 1
8 77 266 0 100 96 74 97 ?12 29 99 477 0 101 102 97 -.016 .0195 -.000871779788708
135 18 101 411 0 103 104 105 99 ?12 29 102 478 0 105 106 99 -.016 .0195 -.006 18
 105 419 0 107 101 108 102 ?12 29 106 481 0 108 109 102 -.016 .0195 .006 18 108
 415 0 110 105 111 106 ?12 29 109 482 0 111 112 106 -.016 .0195 .000871779788708
135 18 111 413 0 113 108 114 109 ?12 29 112 483 0 87 115 109 -.016 .0215 -.00087
1779788708135 18 87 418 0 116 84 117 112 ?12 29 115 484 0 117 118 112 -.016 .021
5 -.006 18 117 416 0 119 87 120 115 ?12 29 118 485 0 120 121 115 -.0115 .0215 -.
006 18 120 421 0 55 117 122 118 ?12 29 121 487 0 122 123 118 -.016 .0215 .006 18
 122 412 0 124 120 104 121 ?12 29 123 488 0 104 125 121 -.016 .0215 .00087177978
8708135 18 104 410 0 126 122 101 123 ?12 29 125 679 0 114 127 123 -.0055 .025 .0
06 18 114 617 0 128 111 129 125 ?12 29 127 680 0 129 130 125 -.0115 .025 1734723
47597681e-32 18 129 618 0 131 114 132 127 ?12 29 130 681 0 132 133 127 -.0055 .0
25 -.006 18 132 619 0 134 129 135 130 ?12 29 133 682 0 136 137 130 -827609228273
225e-33 .025 -.002397915761656365 18 136 624 0 138 139 140 133 ?12 29 137 683 0
 140 141 133 .001 .025 -.00239791576165636 18 140 622 0 142 136 143 137 ?12 29 1
41 684 0 143 144 137 .001 .025 .00239791576165636 18 143 623 0 145 140 0 141 ?12
 29 144 686 0 135 146 141 -827609228273225e-33 .0285 -.002397915761656365 18 135
 616 0 147 132 148 144 ?12 29 146 687 0 148 149 144 .001 .0285 -.002397915761656
36 18 148 615 0 150 135 151 146 ?12 29 149 688 0 151 152 146 .001 .0285 .0023979
1576165636 18 151 621 0 153 148 139 149 ?12 29 152 689 0 139 0 149 -169497096626
163e-32 .0285 .002397915761656365 18 139 614 0 154 151 136 152 ?12 17 154 0 155
 156 147 139 157 158 0 48 +15 255 155 628 0 154 159 160 17 156 0 155 150 154 151
 47 161 0 0 -17 147 0 155 154 150 135 162 163 0 164 +17 157 0 165 166 48 135 154
 158 0 0 -16 158 571 0 ?154 161 167 168 0 0 12 17 48 0 165 157 50 139 43 49 0 47
 -15 165 638 0 134 169 0 17 50 0 165 48 128 30 170 171 0 172 +16 49 602 0 ?43 17
3 174 175 0 0 12 17 47 0 45 43 153 139 156 161 0 0 +15 45 642 0 46 34 0 17 153 0
 45 47 46 151 145 174 0 176 -16 161 599 0 ?47 177 158 178 0 0 12 16 177 574 0 ?1
50 163 161 179 0 0 12 30 255 178 675 0 161 168 179 0 +4159720765160095e-33 .0285
 .002397915761656365 -1 0 1734723475976805e-30 31 168 676 0 158 180 178 0 +-.005
5 .0285 0 0 1 0 0 0 1 .006 31 179 674 0 177 178 181 0 +.001 .0285 0 0 1 0 0 0 1
 .00239791576165636 30 181 673 0 163 179 182 0 +4159720765160095e-33 .0285 -.002
397915761656365 -1 0 -1734723475976805e-30 16 163 577 0 ?147 183 177 181 0 0 12
 31 182 672 0 184 181 185 0 +-.0055 .025 0 0 1 0 0 0 1 .006 16 184 586 0 ?134 18
6 187 182 42 171 12 30 185 671 0 186 182 188 0 +4159720765160095e-33 .025 .00239
7915761656365 -1 0 1734723475976805e-30 16 186 580 0 ?172 189 184 185 0 0 12 31
 188 670 0 189 185 190 0 +.001 .025 0 0 1 0 0 0 1 .00239791576165636 16 189 603
 0 ?142 167 186 188 0 0 12 30 190 669 0 167 188 191 0 +4159720765160095e-33 .025
 -.002397915761656365 -1 0 -1734723475976805e-30 16 167 607 0 ?138 158 189 190 0
 0 12 30 191 668 0 183 190 192 0 +-827609228273225e-33 .0285 -.00239791576165636
5 0 -1 0 16 183 598 0 ?166 193 163 191 0 0 12 30 192 667 0 193 191 194 0 +.001 .
0285 -.00239791576165636 0 -1 0 16 193 610 0 ?195 174 183 192 0 0 12 30 194 666
 0 174 192 175 0 +.001 .0285 .00239791576165636 0 -1 0 16 174 606 0 ?145 49 193
 194 0 0 12 30 175 665 0 49 194 196 0 +-169497096626163e-32 .0285 .0023979157616
56365 0 -1 0 31 196 476 0 197 175 198 0 +-.0142 .0215 0 0 1 0 0 0 1 .002 16 197
 368 0 ?199 200 201 196 0 0 12 30 198 475 0 200 196 202 0 +-.016 .0215 0 0 0 -1
 16 200 372 0 ?203 204 197 198 205 205 12 30 202 474 0 204 198 206 0 +0 .0215 .0
06 1 0 0 16 204 392 0 ?207 57 200 202 0 0 12 30 206 473 0 57 202 208 0 +-.0115 .
0215 332488666228888e-32 -289120579329468e-30 0 -1 16 57 395 0 ?56 209 204 206 0
 0 12 30 208 472 0 209 206 210 0 +0 .0215 -.006 1 0 0 16 209 384 0 ?211 205 57 2
08 0 0 12 31 210 471 0 173 208 212 0 +-.0142 .0195 0 0 1 0 0 0 1 .002 16 173 398
 0 ?213 214 49 210 0 0 12 30 212 470 0 214 210 215 0 +-.016 .0195 0 0 0 -1 16 21
4 407 0 ?216 201 173 212 201 201 12 30 215 466 0 217 212 218 0 +-.016 .0215 -.00
0871779788708135 0 -1 0 16 217 371 0 ?103 219 205 215 0 0 12 30 218 465 0 219 21
5 220 0 +-.016 .0215 -.006 0 -1 0 16 219 391 0 ?221 222 217 218 0 0 12 30 220 46
2 0 222 218 223 0 +-.016 .0215 .006 0 -1 0 16 222 379 0 ?224 225 219 220 0 0 12
 30 223 461 0 225 220 226 0 +-.016 .0215 .000871779788708135 0 -1 0 16 225 375 0
 ?113 227 222 223 0 0 12 30 226 331 0 228 223 229 0 +.016 .0215 0 0 0 -1 16 228
 247 0 ?230 231 232 226 233 233 12 31 229 330 0 231 226 234 0 -.0142 .0215 0 0 1
 0 0 0 1 .002 16 231 250 0 ?98 233 228 229 0 0 12 30 234 329 0 235 229 236 0 +0
 .0215 -.006 1 0 0 16 235 235 0 ?237 238 233 234 0 0 12 30 236 328 0 238 234 239
 0 +.0115 .0215 0 0 0 -1 16 238 239 0 ?240 241 235 236 0 0 12 30 239 327 0 241 2
36 242 0 +0 .0215 .006 1 0 0 16 241 256 0 ?89 243 238 239 0 0 12 30 242 326 0 22
7 239 244 0 +.016 .0195 0 0 0 -1 16 227 223 0 ?245 246 225 242 247 247 12 31 244
 325 0 246 242 248 0 -.0142 .0195 0 0 1 0 0 0 1 .002 16 246 227 0 ?83 247 227 24
4 0 0 12 30 248 324 0 249 244 250 0 +0 .0195 -.006 1 0 0 16 249 262 0 ?251 232 2
47 248 0 0 12 30 250 322 0 232 248 252 0 +0 .0195 .006 1 0 0 16 232 243 0 ?76 22
8 249 250 0 0 12 30 252 321 0 243 250 253 0 +.016 .0215 .006 0 -1 0 16 243 226 0
 ?254 255 241 252 0 0 12 30 253 318 0 255 252 256 0 +.016 .0215 -.006 0 -1 0 16
 255 238 0 ?80 257 243 253 0 0 12 30 256 317 0 257 253 258 0 +.016 .0215 -.00087
1779788708135 0 -1 0 16 257 234 0 ?259 260 255 256 0 0 12 30 258 316 0 260 256 2
61 0 +.016 .0215 .000871779788708135 0 -1 0 16 260 230 0 ?262 263 257 258 0 0 12
 30 261 13 0 264 258 265 0 +-.0115 .025 332488666228888e-32 -289120579329468e-30
 0 -1 16 264 11 0 ?266 267 263 261 263 263 12 30 265 19 0 268 261 269 0 +0 .025
 .006 1 0 0 16 268 17 0 ?270 271 267 265 267 267 12 30 269 26 0 271 265 272 0 +.
0115 .025 0 0 0 -1 16 271 24 0 ?273 274 268 269 0 0 12 30 272 31 0 275 269 276 0
 +0 .025 -.006 1 0 0 16 275 29 0 ?277 278 274 272 274 274 12 30 276 138 0 278 27
2 279 0 +-.0115 .025 -.006 0 -1 0 16 278 117 0 ?55 280 275 276 0 0 12 30 279 139
 0 280 276 281 0 +.0115 .025 -.006 0 -1 0 16 280 118 0 ?282 283 278 279 0 0 12 3
0 281 140 0 283 279 38 0 +.0115 .025 .006 0 -1 0 16 283 119 0 ?284 285 280 281 0
 0 12 30 38 141 0 285 281 26 0 +-.0115 .025 .006 0 -1 0 16 285 120 0 ?58 171 283
 38 0 0 12 17 58 0 286 287 288 44 54 285 0 207 +16 171 548 0 ?50 289 285 182 184
 289 12 16 289 549 0 ?128 42 171 182 171 42 12 17 128 0 165 50 131 114 290 289 0
 170 +16 42 556 0 ?131 29 289 182 289 184 12 17 131 0 165 128 134 129 291 42 0 2
90 +17 134 0 165 131 166 132 292 184 0 291 +17 291 0 293 294 295 132 131 42 0 29
6 -17 290 0 297 298 270 129 128 289 0 295 -15 297 550 0 290 299 0 17 298 0 297 2
70 290 71 266 264 0 0 -17 270 0 297 290 298 114 288 268 0 0 +17 295 0 293 291 29
4 129 64 263 0 266 -15 293 557 0 291 300 0 17 294 0 293 295 291 60 277 275 0 0 -
17 64 0 53 55 266 60 295 263 0 301 +16 263 528 0 ?64 264 260 261 264 264 12 17 2
66 0 53 64 54 129 298 264 0 0 +15 53 360 0 51 302 0 17 54 0 53 266 51 71 58 285
 0 288 -17 288 0 286 58 303 71 270 268 0 298 -15 286 125 0 224 304 0 17 303 0 28
6 288 305 114 70 267 0 270 -17 305 0 286 303 92 68 284 283 0 0 -17 70 0 306 273
 170 68 303 267 0 307 +16 267 531 0 ?70 268 264 265 268 268 12 15 306 564 0 292
 308 0 17 273 0 306 296 70 65 307 271 0 309 +17 170 0 306 70 172 114 50 171 0 30
3 -17 307 0 310 284 309 68 273 271 0 305 -15 310 123 0 284 311 0 17 284 0 310 24
0 307 90 305 283 0 0 +17 309 0 310 307 240 65 282 280 0 0 -17 240 0 310 309 284
 52 312 238 0 282 +17 282 0 313 237 67 52 309 280 0 0 +15 313 1002 0 107 314 0 1
7 237 0 313 80 282 93 59 235 0 0 +17 67 0 313 282 277 65 296 274 0 273 +17 277 0
 313 67 301 132 294 275 0 0 +17 296 0 306 292 273 132 67 274 0 277 -16 274 534 0
 ?67 275 271 272 275 275 12 17 292 0 306 315 296 136 134 184 0 0 -17 315 0 306 3
16 292 140 138 167 0 0 -17 316 0 306 172 315 143 142 189 0 0 -17 138 0 317 164 1
95 136 315 167 0 166 +15 317 650 0 138 318 0 17 164 0 317 162 138 135 166 183 0
 157 -17 195 0 317 138 162 140 319 193 0 315 +17 166 0 165 134 157 136 164 183 0
 292 +17 162 0 317 195 164 148 147 163 0 0 -17 319 0 320 176 142 148 195 193 0 1
62 -15 320 646 0 142 321 0 17 176 0 320 145 319 151 150 177 0 156 -17 142 0 320
 319 145 140 316 189 0 195 +17 145 0 320 142 176 143 153 174 0 46 +17 46 0 45 15
3 43 143 172 186 0 316 -17 172 0 306 170 316 30 46 186 0 0 +17 150 0 155 147 156
 148 176 177 0 319 +14 255 321 643 322 ?318 34 320 24 323 -0 0 34 318 40 81 1 32
2 1355 324 321 325 0 0 326 327 14 318 647 326 ?169 321 317 24 328 -0 0 321 169 4
0 14 34 639 329 ?321 0 45 24 330 +0 0 0 321 40 51 323 660 0 321 328 330 0 -.001
 .0285 0 0 -1 0 .00239791576165636 0 0 -1 13 40 1155 0 0 0 0 0 0 28 36 14 36 130
 331 ?0 159 332 24 25 +0 0 159 0 40 81 1 331 1358 324 36 333 0 329 334 335 14 15
9 625 334 ?36 336 155 24 337 +0 0 336 36 40 15 332 1012 0 338 36 339 17 338 0 33
2 338 338 0 41 29 0 0 -15 339 654 0 340 36 0 17 340 0 339 340 340 0 341 187 0 0
 +17 341 0 160 341 341 0 340 187 0 0 -16 187 611 0 ?340 184 0 180 0 0 12 31 180
 678 0 187 0 168 0 +-.0055 .0285 0 0 1 0 0 0 1 .002 15 160 629 0 341 159 0 17 41
 0 342 41 41 0 338 29 0 0 +15 342 1081 0 41 336 0 14 336 304 343 ?159 344 345 24
 346 -0 0 344 159 40 81 1 343 1360 324 336 347 0 334 348 349 14 344 277 348 ?336
 350 351 24 352 -353 353 350 336 40 15 345 306 0 354 336 342 50 255 346 314 0 33
6 355 352 0 +0 .0195 0 0 1 0 0 0 1 50 355 315 0 356 357 346 0 +0 .0215 0 0 1 0 0
 0 1 50 352 310 0 353 346 358 0 +.016 .0215 0 -1 0 0 0 0 1 14 353 285 359 ?360 3
61 362 24 352 -344 344 361 360 40 51 358 309 0 361 352 363 0 +.0142 .0215 0 0 -1
 0 .002 0 0 -1 14 361 281 364 ?353 365 366 24 358 -0 0 365 353 40 50 363 3 0 299
 358 367 0 +0 .025 0 0 1 0 0 0 1 14 299 1 368 ?356 169 297 24 363 +308 300 169 3
56 40 50 367 133 0 314 363 369 0 +0 .025 -.006 0 0 -1 -1 0 0 14 314 122 370 ?371
 304 313 24 367 +0 0 304 371 40 50 369 134 0 311 367 372 0 +.0115 .025 0 -1 0 0
 0 0 1 14 311 124 373 ?308 356 310 24 369 -0 0 356 308 40 50 372 135 0 304 369 3
7 0 +0 .025 .006 0 0 -1 -1 0 0 14 304 126 374 ?314 360 286 24 372 -0 0 360 314 4
0 50 37 136 0 302 372 25 0 +-.0115 .025 332488666228888e-32 -1 0 289120579329468
e-30 289120579329468e-30 0 1 14 302 128 375 ?365 300 53 24 37 +0 0 300 365 40 81
 1 375 1368 324 302 376 0 374 377 378 14 365 446 377 ?361 302 379 24 380 +0 0 30
2 361 40 14 300 551 381 ?302 308 293 24 363 +299 308 308 302 40 81 1 381 1370 32
4 300 382 0 377 383 384 14 308 558 383 ?300 311 306 24 363 +300 299 311 300 40 8
1 1 383 1371 324 308 385 0 381 386 387 80 255 1 324 388 389 9000 1 1 1 1 1 1 1 1
 0 FFFFTFTFFFFFFF1 81 1 385 1273 390 308 0 383 391 382 392 81 1 386 1372 324 356
 393 0 383 394 395 82 255 1 387 491192427 14 356 301 386 ?311 299 396 24 355 +0
 0 299 311 40 81 1 393 1271 390 356 0 386 397 391 398 81 1 394 1373 324 169 399
 0 386 400 401 82 1 395 -1958346647 14 169 635 394 ?299 318 165 24 402 -0 0 318
 299 40 81 1 399 1269 390 169 0 394 403 397 404 81 1 400 1374 324 371 405 0 394
 406 407 82 1 401 465371243 14 371 442 400 ?350 314 408 24 409 +360 360 314 350
 40 81 1 405 1282 390 371 0 400 410 411 412 81 1 406 1375 324 360 413 0 400 414
 415 82 1 407 -1930493847 14 360 426 406 ?304 353 416 24 409 +371 371 353 304 40
 81 1 413 1279 390 360 0 406 417 418 419 81 1 414 1376 324 350 411 0 406 0 420 8
2 1 415 -1929641879 14 350 422 414 ?344 371 421 24 357 +0 0 371 344 40 81 1 411
 1283 390 350 0 414 405 422 423 82 1 420 -1929445271 80 1 390 0 424 8001 0 0 0 0
 3 5 0 0 0 FFFFTFTFFFFFFF2 81 1 422 1284 390 344 0 348 411 347 425 83 255 3 423
 .501960784313726 .501960784313726 1 81 1 348 1361 324 344 422 0 343 359 426 81
 1 347 1285 390 336 0 343 422 427 428 83 3 425 .501960784313726 .501960784313726
 1 81 1 427 1286 390 159 0 334 347 333 429 83 3 428 .501960784313726 .5019607843
13726 1 81 1 334 1359 324 159 427 0 331 343 430 81 1 333 1287 390 36 0 331 427 0
 431 83 3 429 .501960784313726 .501960784313726 1 83 3 431 .501960784313726 .501
960784313726 1 82 1 430 480837739 81 1 359 1362 324 353 417 0 348 364 432 82 1 4
26 -1946943383 81 1 417 1278 390 353 0 359 433 413 434 81 1 364 1363 324 361 433
 0 359 368 435 82 1 432 -1947533207 81 1 433 1277 390 361 0 364 436 417 437 81 1
 368 1364 324 299 397 0 364 370 438 82 1 435 -1947205527 81 1 397 1270 390 299 0
 368 399 393 439 81 1 370 1365 324 314 410 0 368 373 440 82 1 438 -2042888085 81
 1 410 1281 390 314 0 370 418 405 441 81 1 373 1366 324 311 391 0 370 374 442 82
 1 440 1694761100 81 1 391 1272 390 311 0 373 393 385 443 81 1 374 1367 324 304
 418 0 373 375 444 82 1 442 -2033385367 81 1 418 1280 390 304 0 374 413 410 445
 82 1 444 1700331660 83 3 445 .501960784313726 .501960784313726 1 83 3 443 .5019
60784313726 .501960784313726 1 83 3 441 .501960784313726 .501960784313726 1 83 3
 439 .501960784313726 .501960784313726 1 81 1 436 1276 390 365 0 377 376 433 446
 83 3 437 .501960784313726 .501960784313726 1 81 1 377 1369 324 365 436 0 375 38
1 447 81 1 376 1275 390 302 0 375 382 436 448 83 3 446 .501960784313726 .5019607
84313726 1 81 1 382 1274 390 300 0 381 385 376 449 83 3 448 .501960784313726 .50
1960784313726 1 83 3 449 .501960784313726 .501960784313726 1 82 1 447 -194071746
3 83 3 434 .501960784313726 .501960784313726 1 79 255 15 424 SDL/TYSA_COLOUR15 4
21 425 0 450 350 0 51 357 454 0 350 409 355 0 --.0142 .0215 0 0 -1 0 .002 0 0 -1
 50 409 458 0 371 380 357 0 +-.016 .0215 0 -1 0 0 0 0 1 50 380 460 0 365 402 409
 0 +0 .0215 0 0 1 0 0 0 1 51 402 658 0 169 330 380 0 --.0055 .0285 0 0 -1 0 .006
 0 0 -1 50 330 659 0 34 323 402 0 +4159720765160095e-33 .0285 .00239791576165636
5 1734723475976805e-30 0 1 1 0 -1734723475976805e-30 17 450 0 421 126 103 111 21
3 173 0 216 -17 126 0 421 199 450 104 113 225 0 451 -17 103 0 421 450 199 101 11
6 217 0 213 +17 213 0 345 452 216 101 450 173 0 453 +17 216 0 345 213 110 111 45
4 214 0 0 +17 110 0 345 216 354 108 76 232 0 224 -17 454 0 416 124 113 108 216 2
14 0 0 -15 416 429 0 454 360 0 17 124 0 416 203 454 122 224 222 0 287 -17 113 0
 416 454 203 111 126 225 0 450 +17 203 0 416 113 124 104 455 200 0 0 +17 455 0 3
79 207 451 122 203 200 0 0 -15 379 448 0 451 365 0 17 207 0 379 56 455 44 287 20
4 0 0 +17 451 0 379 455 456 104 199 197 0 203 -17 456 0 379 451 457 87 458 205 0
 0 -17 199 0 421 103 126 87 451 197 0 456 +17 457 0 379 456 56 117 211 209 0 458
 -17 458 0 408 221 116 117 456 205 0 0 +16 205 388 0 ?458 217 209 198 200 200 12
 15 408 445 0 453 371 0 17 221 0 408 453 458 105 119 219 0 452 +17 116 0 408 458
 453 87 103 217 0 199 -17 453 0 408 116 221 101 452 201 0 0 -17 452 0 345 251 21
3 105 453 201 0 0 +16 201 401 0 ?452 197 214 212 214 214 12 17 251 0 345 459 452
 78 107 249 0 0 +17 459 0 345 86 251 81 460 247 0 0 -17 107 0 313 119 80 105 251
 249 0 221 -17 119 0 313 211 107 117 221 219 0 457 -17 80 0 313 107 237 78 461 2
55 0 460 +17 461 0 362 462 460 93 80 255 0 237 -17 460 0 362 461 259 78 459 247
 0 251 +15 362 288 0 460 353 0 17 259 0 362 460 462 81 463 257 0 459 +16 247 231
 0 ?460 249 246 242 227 227 12 17 462 0 362 259 461 96 95 233 0 0 -17 463 0 366
 100 83 96 259 257 0 462 -15 366 284 0 83 361 0 17 100 0 366 262 463 77 98 231 0
 230 -17 83 0 366 463 262 81 86 246 0 259 +17 262 0 366 83 100 84 464 260 0 245
 +17 86 0 345 354 459 84 83 246 0 262 -17 354 0 345 110 86 74 245 227 0 0 -17 24
5 0 351 464 254 84 354 227 0 0 +15 351 280 0 245 344 0 17 464 0 351 465 245 77 2
62 260 0 0 -17 254 0 351 245 465 74 466 243 0 354 +17 465 0 351 254 464 73 230 2
28 0 0 -17 466 0 286 92 76 73 254 243 0 465 -17 92 0 286 305 466 90 89 241 0 312
 -17 76 0 286 466 224 74 110 232 0 254 +17 224 0 286 76 287 108 124 222 0 454 +1
7 287 0 286 224 58 122 207 204 0 455 -17 89 0 396 230 312 73 92 241 0 466 +17 31
2 0 396 89 59 90 240 238 0 284 -15 396 303 0 230 356 0 17 59 0 396 312 95 52 237
 235 0 240 -17 95 0 396 59 98 93 462 233 0 461 +17 98 0 396 95 230 96 100 231 0
 463 +16 233 253 0 ?95 235 231 226 228 228 12 17 230 0 396 98 89 77 465 228 0 46
4 +17 211 0 313 301 119 120 457 209 0 0 +17 301 0 313 277 211 60 55 278 0 294 -1
7 55 0 53 51 64 120 301 278 0 56 +17 56 0 379 457 207 120 51 57 0 211 +83 3 419
 .501960784313726 .501960784313726 1 83 3 412 .501960784313726 .501960784313726
 1 81 1 403 1268 390 318 0 326 325 399 467 83 3 404 .501960784313726 .5019607843
13726 1 81 1 326 1356 324 318 403 0 322 329 468 81 1 325 1267 390 321 0 322 469
 403 470 83 3 467 .501960784313726 .501960784313726 1 81 1 469 1266 390 34 0 329
 0 325 471 83 3 470 .501960784313726 .501960784313726 1 81 1 329 1357 324 34 469
 0 326 331 472 83 3 471 .501960784313726 .501960784313726 1 82 1 472 465174635 8
2 1 468 464650347 83 3 398 .501960784313726 .501960784313726 1 83 3 392 .5019607
84313726 .501960784313726 1 79 14 389 SWEntUnchanged82 1 384 490602603 82 1 378
 -2032795541 82 1 349 1702953100 50 337 663 0 159 0 328 0 +-.0055 .0285 0 0 1 0
 0 0 1 50 328 661 0 318 337 323 0 +4159720765160095e-33 .0285 -.0023979157616563
65 -1734723475976805e-30 0 1 1 0 1734723475976805e-30 82 1 335 1694957708 82 1 3
27 464912491 19 35 143 0 12 0 28 24 S0 74 4 CI16 index_map_offset0 0 1 dCCZ20 33
 4 0 0 414 333 32 21 0 0 0 0 0 0 0 0 0 0 0 0 0 0 0 0 81 2 32 1353 473 12 0 21 0
 0 474 0 80 2 473 475 476 8004 0 0 0 0 3 5 0 0 0 FFTFFFFFFFFFFF2 3 83 1 474 1150
 79 16 476 SDL/TYSA_DENSITY80 1 31 477 478 8017 0 0 0 0 0 0 0 0 0 TTTTTTTTTTTTTF
3 79 13 478 SDL/TYSA_NAME81 1 10 231 31 7 479 0 0 0 0 70 11 0 4 T7 0 0 4 20 1 48
0 480 13 13 10 0 7 0 481 0 0 482 0 51 14 120 0 483 484 0 0 --.0055 .025 0 0 -1 0
 .002 0 0 -1 30 15 129 0 485 486 0 0 +.0115 .0195 0 0 0 -1 29 16 114 0 19 487 0
 -.0115 0 .006 19 17 1 0 7 482 0 488 V0 16 18 64 0 ?489 0 490 491 0 0 7 18 19 92
 0 492 0 493 16 ?7 17 492 0 494 495 496 19 497 498 0 499 +18 493 93 0 500 19 501
 487 ?7 17 500 0 502 503 504 493 505 506 0 507 +18 501 94 0 508 493 509 510 ?7 2
9 487 113 0 493 510 16 .0115 0 .006 29 510 112 0 501 511 487 .0115 0 -.006 29 51
1 111 0 509 512 510 -.0115 0 -.006 18 509 95 0 513 501 514 511 ?7 29 512 110 0 5
14 515 511 -.0115 .0195 .006 18 514 96 0 516 509 517 512 ?7 29 515 109 0 517 518
 512 -.0115 .0195 -.006 18 517 97 0 489 514 519 515 ?7 29 518 108 0 519 520 515
 .0115 .0195 .006 18 519 98 0 505 517 521 518 ?7 29 520 107 0 521 0 518 .0115 .0
195 -.006 18 521 99 0 522 519 0 520 ?7 17 522 0 502 504 503 521 508 523 0 524 -1
5 502 51 0 504 525 0 17 504 0 502 500 522 519 526 485 0 0 -17 503 0 502 522 500
 501 507 527 0 528 +17 508 0 529 530 524 501 522 523 0 503 +16 523 77 0 ?508 531
 506 532 0 0 7 17 524 0 529 508 533 521 534 535 0 526 +15 529 33 0 533 536 0 17
 533 0 529 524 530 517 513 531 0 0 -17 534 0 537 516 526 517 524 535 0 533 -16 5
35 85 0 ?524 538 539 540 0 0 7 17 526 0 537 534 541 521 504 485 0 0 +15 537 15 0
 534 481 542 17 541 0 537 526 516 519 496 543 0 504 +16 485 89 0 ?526 543 0 15 0
 0 7 16 543 87 0 ?541 539 485 544 0 0 7 16 539 86 0 ?545 535 543 546 0 0 7 30 54
4 124 0 543 546 547 0 +0 .0195 .006 1 0 0 31 546 123 0 539 540 544 0 +-.0055 .01
95 0 0 1 0 0 0 1 .002 30 547 125 0 498 544 548 0 +-.0115 .025 .006 0 -1 0 16 498
 81 0 ?492 506 538 547 0 0 7 30 548 126 0 506 547 532 0 +.0115 .025 .006 0 -1 0
 16 506 79 0 ?500 523 498 548 0 0 7 30 532 127 0 523 548 486 0 +.0115 .025 -.006
 0 -1 0 30 486 128 0 531 532 15 0 +-.0115 .025 -.006 0 -1 0 16 531 75 0 ?513 549
 523 486 0 0 7 17 513 0 550 551 489 509 533 531 0 552 +16 549 73 0 ?528 527 531
 553 0 0 7 17 528 0 554 507 552 501 530 549 0 0 +16 527 71 0 ?503 555 549 556 0
 0 7 30 553 103 0 549 557 556 0 +0 0 -.006 1 0 0 31 557 102 0 538 0 553 0 +-.005
5 .005 0 0 1 0 0 0 1 .002 30 556 104 0 527 553 558 0 +.0115 0 0 0 0 -1 30 558 10
5 0 555 556 559 0 +0 0 .006 1 0 0 16 555 69 0 ?495 490 527 558 0 0 7 30 559 106
 0 490 558 491 0 +-.0115 0 332488666228888e-32 -289120579329468e-30 0 -1 16 490
 67 0 ?552 18 555 559 0 0 7 30 491 121 0 18 559 540 0 +-.0115 .0195 332488666228
888e-32 -289120579329468e-30 0 -1 30 540 122 0 535 491 546 0 +0 .0195 -.006 1 0
 0 17 552 0 554 528 499 509 551 490 0 530 +15 554 25 0 552 560 0 17 499 0 554 55
2 507 19 495 555 0 551 -17 551 0 550 497 513 19 552 490 0 0 -17 530 0 529 533 50
8 509 528 549 0 0 -15 550 46 0 497 561 0 17 497 0 550 489 551 514 492 498 0 0 -1
7 489 0 550 513 497 517 516 18 0 534 +17 516 0 537 541 534 514 489 18 0 496 -17
 496 0 494 492 505 514 541 543 0 497 -15 494 41 0 496 562 0 17 505 0 494 496 495
 519 500 506 0 541 -17 495 0 494 505 492 493 499 555 0 0 +14 562 34 563 ?561 536
 494 13 564 -0 0 561 536 488 81 1 563 223 324 562 565 0 0 566 567 14 561 42 566
 ?525 562 550 13 568 +0 0 525 562 488 14 536 26 569 ?562 560 529 13 484 +0 0 562
 560 488 50 564 118 0 562 568 484 0 +0 .025 .006 0 0 -1 -1 0 0 13 488 8 0 0 0 0
 0 0 17 560 14 560 17 570 ?536 481 554 13 571 -0 0 536 0 488 81 1 570 226 324 56
0 572 0 569 573 574 14 481 11 573 ?560 0 537 13 575 +0 0 0 576 488 50 571 100 0
 560 0 577 0 +0 0 0 0 1 0 0 0 1 50 577 101 0 576 571 575 0 +-.0055 .005 0 0 1 0
 0 0 1 14 576 59 578 ?0 483 579 13 577 +0 0 481 483 488 50 575 115 0 481 577 580
 0 +-.0115 .0195 .006 0 1 0 0 0 1 50 580 116 0 525 575 568 0 +.0115 .025 0 -1 0
 0 0 0 1 14 525 47 581 ?483 561 502 13 580 -0 0 483 561 488 50 568 117 0 561 580
 564 0 +-.0115 .025 332488666228888e-32 -1 0 289120579329468e-30 289120579329468
e-30 0 1 81 1 581 229 324 525 582 0 578 583 584 14 483 52 583 ?576 525 585 13 14
 +0 0 576 525 488 81 1 583 230 324 483 586 0 581 0 587 15 585 57 0 588 483 589 1
7 588 0 585 588 588 0 590 538 0 0 -15 589 58 0 545 483 0 17 545 0 589 545 545 0
 591 539 0 0 +17 591 0 542 591 591 0 545 539 0 0 -15 542 16 0 591 481 0 17 590 0
 579 590 590 0 588 538 0 0 +16 538 83 0 ?590 498 535 557 0 0 7 15 579 63 0 590 5
76 0 81 1 586 188 390 483 0 583 582 592 593 82 1 587 1728118924 81 1 582 187 390
 525 0 581 594 586 595 81 1 592 189 390 576 0 578 586 0 596 83 3 593 .5019607843
13726 .501960784313726 1 81 1 578 228 324 576 592 0 573 581 597 83 3 596 .501960
784313726 .501960784313726 1 81 1 573 227 324 481 598 0 570 578 599 82 1 597 170
4919180 81 1 598 182 390 481 0 573 0 572 600 82 1 599 1732509836 81 1 572 183 39
0 560 0 570 598 601 602 83 3 600 .501960784313726 .501960784313726 1 81 1 601 18
4 390 536 0 569 572 565 603 83 3 602 .501960784313726 .501960784313726 1 81 1 56
9 225 324 536 601 0 566 570 604 81 1 565 185 390 562 0 563 601 594 605 83 3 603
 .501960784313726 .501960784313726 1 81 1 594 186 390 561 0 566 565 582 606 83 3
 605 .501960784313726 .501960784313726 1 81 1 566 224 324 561 594 0 563 569 607
 83 3 606 .501960784313726 .501960784313726 1 82 1 607 1700069516 82 1 604 17273
32492 83 3 595 .501960784313726 .501960784313726 1 82 1 584 1699872908 82 1 574
 1695613068 50 484 119 0 536 564 14 0 +0 .025 -.006 0 0 -1 -1 0 0 82 1 567 17287
74284 17 507 0 554 499 528 493 503 527 0 495 -19 482 9 0 7 0 17 13 S0 74 20 480
 4 0 0 583 592 479 10 0 0 0 0 0 0 0 0 0 0 0 0 0 0 0 0 81 2 479 221 473 7 0 10 0
 0 608 0 83 1 608 1150 74 20 6 1 0 0 2 0 0 0 0 0 0 0 0 0 0 0 0 0 0 0 0 0 0 0 80
 2 5 609 610 9000 0 0 0 0 3 5 0 0 0 TFFFFFFFFFFFFF9 1 79 18 610 MULTI_BODY_ID_20
011 0 
